<svg xmlns="http://www.w3.org/2000/svg" viewBox="0 0 266.18 117.59"><defs><style>.cls-1{fill:#fff;}</style></defs><g id="Layer_2" data-name="Layer 2"><path class="cls-1" d="M15,48.15V13.46H6.32V4H30.84v9.46H22V48.15Z"/><path class="cls-1" d="M36.36,48.15V4H49.43a7.82,7.82,0,0,1,5,1.83,12.14,12.14,0,0,1,3.55,5,19.32,19.32,0,0,1,1.28,7.22A20.69,20.69,0,0,1,58,25.54a12.65,12.65,0,0,1-3.53,5.2,7.63,7.63,0,0,1-5.06,1.89H43.08V48.15Zm6.72-23.72h5.73a2.75,2.75,0,0,0,1.88-.72,4.62,4.62,0,0,0,1.25-2.05,9.68,9.68,0,0,0,.43-3,8.33,8.33,0,0,0-.49-3,4.31,4.31,0,0,0-1.44-2A3.68,3.68,0,0,0,48.18,13h-5.1Zm9.38,23.72L45.07,28.22l7.22-1.58L60.5,48.15Z"/><path class="cls-1" d="M62.33,48.15,73.82,4h6L91.2,48.15H84.07L78.59,25.76c-.22-.88-.44-1.83-.66-2.84s-.44-2.05-.66-3.12-.44-2.12-.65-3.15-.38-2-.52-2.87l1.25-.07c-.17,1-.35,2.08-.56,3.09s-.42,2-.62,3-.44,2-.69,3-.48,2-.7,3.06L69.3,48.15Zm5.48-8.45L70,31.62H83.36l2.16,8.08Z"/><path class="cls-1" d="M100.37,48.15,88.76,4H96.1l5.6,22.52c.33,1.3.62,2.43.85,3.4s.44,1.87.62,2.71.35,1.7.5,2.56.33,1.84.52,2.93H102.9c.22-1.43.45-2.7.67-3.82s.47-2.27.74-3.46.63-2.64,1-4.32L110.74,4H118l-11.7,44.15Z"/><path class="cls-1" d="M122.32,48.15V4h20.24v9.14h-13.4V39H143v9.15Zm3.32-18.1V21.34H140.7v8.71Z"/><path class="cls-1" d="M149.62,48.15V4h7V38.69h12.94v9.46Z"/><path class="cls-1" d="M5,114l11.5-44.15h6L33.83,114H26.69L21.22,91.62c-.22-.88-.45-1.83-.67-2.84s-.44-2-.66-3.12-.44-2.12-.64-3.16-.38-2-.52-2.86L20,79.57c-.16,1.05-.35,2.08-.56,3.09s-.41,2-.62,3-.44,2-.68,3-.49,2-.71,3.06L11.92,114Zm5.48-8.45,2.2-8.08H26l2.15,8.08Z"/><path class="cls-1" d="M50.63,114.64a12,12,0,0,1-6.31-1.71,15.26,15.26,0,0,1-4.85-4.79,24.24,24.24,0,0,1-3.11-7.28,36.55,36.55,0,0,1-1.08-9.12,34,34,0,0,1,1.14-9,24,24,0,0,1,3.26-7.22,15.68,15.68,0,0,1,5-4.79A12.06,12.06,0,0,1,51,69a11.13,11.13,0,0,1,4.55.94,13.82,13.82,0,0,1,3.87,2.59,15.39,15.39,0,0,1,2.95,3.78l-4.27,6.88a15.51,15.51,0,0,0-2.14-2.53A9.64,9.64,0,0,0,53.58,79a6.06,6.06,0,0,0-2.66-.6,5.84,5.84,0,0,0-3.34,1,9.16,9.16,0,0,0-2.65,2.8,14.79,14.79,0,0,0-1.77,4.23,21.37,21.37,0,0,0-.62,5.26A20.36,20.36,0,0,0,43.2,97,15.38,15.38,0,0,0,45,101.3a9.37,9.37,0,0,0,2.76,2.84,6.16,6.16,0,0,0,3.42,1,5,5,0,0,0,2.43-.63,6.3,6.3,0,0,0,2-1.71,8.78,8.78,0,0,0,1.33-2.55,10,10,0,0,0,.49-3.18V95.47l.92,2.14h-8V89.22H64c.05.47.1,1.1.12,1.89s0,1.58.07,2.34,0,1.32,0,1.7a28.42,28.42,0,0,1-1,7.85,20.05,20.05,0,0,1-2.84,6.15,13.78,13.78,0,0,1-4.32,4A10.57,10.57,0,0,1,50.63,114.64Z"/><path class="cls-1" d="M70.13,114V69.86H90.38V79H77v25.86H90.79V114Zm3.32-18.1V87.2H88.51v8.71Z"/><path class="cls-1" d="M97.43,114V69.86h6.3L119,101.39l-1.37-.31c-.14-1.39-.25-2.71-.33-4s-.16-2.51-.23-3.73-.13-2.46-.17-3.72-.07-2.62-.08-4.1,0-3.06,0-4.79V69.86h6.85V114h-6.39L101.33,81.46l2.11.45c.14,2,.26,3.73.36,5.14s.18,2.65.24,3.75.12,2.08.15,3,0,1.76.06,2.62,0,1.82,0,2.87V114Z"/><path class="cls-1" d="M144.64,114.64a11.47,11.47,0,0,1-6-1.67,15.4,15.4,0,0,1-4.79-4.73,24.06,24.06,0,0,1-3.13-7.26,36.47,36.47,0,0,1-1.1-9.24,33.94,33.94,0,0,1,1.16-9.08A24.76,24.76,0,0,1,134,75.44a15.47,15.47,0,0,1,4.85-4.76,11.53,11.53,0,0,1,6.12-1.7,10.57,10.57,0,0,1,4.07.82,12.13,12.13,0,0,1,3.71,2.43,15.42,15.42,0,0,1,3,3.81l-4.31,7.51a15.48,15.48,0,0,0-1.85-2.43,7.31,7.31,0,0,0-2.13-1.61,5.61,5.61,0,0,0-2.49-.57,5.82,5.82,0,0,0-3.13.92,8.46,8.46,0,0,0-2.58,2.58,13.82,13.82,0,0,0-1.72,4.07,21.56,21.56,0,0,0-.62,5.36,21,21,0,0,0,.62,5.27,14,14,0,0,0,1.74,4.06,7.79,7.79,0,0,0,2.72,2.59,7.22,7.22,0,0,0,3.55.88,6,6,0,0,0,2.53-.56,8.48,8.48,0,0,0,2.22-1.55,11.34,11.34,0,0,0,1.8-2.24l3.41,8.2a11.73,11.73,0,0,1-2.76,3.15,13.77,13.77,0,0,1-3.82,2.18A12,12,0,0,1,144.64,114.64Z"/><path class="cls-1" d="M168.29,114V92l.29,3.09L156.83,69.86h8l9,19.55-3.65-.19,8.09-19.36H186L174.76,95.78l.62-4.29V114Z"/></g><g id="Layer_4" data-name="Layer 4"><g id="Group_14" data-name="Group 14"><path id="Path_16" data-name="Path 16" class="cls-1" d="M257.54,92.62a3.5,3.5,0,0,1-1.2,3L242,75.16l6.67-6.76,1.42,2a41,41,0,0,1,7.32,20.06Zm-37,1.73-2.23,2.08s0,0,0,0h0l-1.89,1.77a27.8,27.8,0,0,1-3.34,2.68,28.81,28.81,0,0,1-2.54,1.56l-.07,0a2.39,2.39,0,0,1-2.58-.33,2.36,2.36,0,0,1-.7-2.5,29,29,0,0,1,1.1-2.8,25.66,25.66,0,0,1,2-3.79l1.38-2.16h0l1.66-2.59,27.9-38.39a15.16,15.16,0,0,1,10.64-5.85,14.3,14.3,0,0,1,2.17,0l1.35.06a1.19,1.19,0,0,1,1.09.9l.31,1.33A15.17,15.17,0,0,1,253.36,60Zm1.83,14.8.17,1.72a1.19,1.19,0,0,1-.36,1l-6.83-9.71c.21-.15.41-.32.62-.48l.49-.39c.53-.43,1-.87,1.52-1.32l0,0,.89-.83a22.18,22.18,0,0,1,3.47,10.08M196.76,89.36l1.74-.15A22.23,22.23,0,0,1,209,90.81l-.65,1c-.38.58-.72,1.17-1.06,1.79-.11.18-.19.36-.29.54s-.25.46-.37.7l-10.78-5a1.17,1.17,0,0,1,.87-.52m11.68-37.68,2.16-.2a41.25,41.25,0,0,1,21,3.59l2.23,1-5.45,7.78L205.75,53.39a3.48,3.48,0,0,1,2.69-1.71m41.83,15,4.81-5.12,0,0a17.52,17.52,0,0,0,4-15.76l-.32-1.33a3.51,3.51,0,0,0-3.22-2.69l-1.35-.07a17.54,17.54,0,0,0-14.81,6.82l-4.17,5.64L232.62,53a43.71,43.71,0,0,0-22.23-3.8l-2.17.2a5.85,5.85,0,0,0-4.75,3.36l-.34.75a1.17,1.17,0,0,0,.56,1.55L227,65.8,211.48,87l-1.18,1.83a24.48,24.48,0,0,0-12-2l-1.75.15a3.55,3.55,0,0,0-2.85,2l-.43.89a1.17,1.17,0,0,0,0,.9,1.13,1.13,0,0,0,.6.65L205.72,97c-.27.65-.52,1.29-.73,2a4.71,4.71,0,0,0,4.85,6.12,4.75,4.75,0,0,0,1.83-.56l.08-.05c.56-.3,1.13-.65,1.71-1l7.54,10.7a1.17,1.17,0,0,0,.76.48,1.2,1.2,0,0,0,.87-.19l.82-.58h0a3.58,3.58,0,0,0,1.47-3.18l-.17-1.73a24.5,24.5,0,0,0-4.09-11.47L222.23,96,240.3,76.88l14.82,21a1.17,1.17,0,0,0,1.63.29h0l.67-.47a5.88,5.88,0,0,0,2.45-5.29l-.19-2.16A43.36,43.36,0,0,0,252,69.07Z"/></g></g></svg>